<svg width="96" height="112" viewBox="0 0 96 112" fill="none" xmlns="http://www.w3.org/2000/svg">
  <g opacity="0.95">
    <path d="M18.2804 42C11.6511 42 7 35.9628 7 29.9088C7 23.8847 11.7077 19 17.5138 19C21.1991 19 24.0165 20.8035 26.095 23.887L26.5 24.4878L26.905 23.887C28.9835 20.8035 31.8009 19 35.4862 19C41.2923 19 46 23.8847 46 29.9088C46 35.9628 41.3489 42 34.7196 42C32.3328 42 29.9924 41.0787 28.1325 39.4568C27.4478 38.8597 26.9199 38.2208 26.5 37.5395C26.0801 38.2208 25.5522 38.8597 24.8675 39.4568C23.0076 41.0787 20.6672 42 18.2804 42Z" fill="#EFC0CD"/>
    <path d="M38.2804 24C31.6511 24 27 17.9628 27 11.9088C27 5.88471 31.7077 1 37.5138 1C41.1991 1 44.0165 2.80348 46.095 5.88695L46.5 6.48783L46.905 5.88695C48.9835 2.80348 51.8009 1 55.4862 1C61.2923 1 66 5.88471 66 11.9088C66 17.9628 61.3489 24 54.7196 24C52.3328 24 49.9924 23.0787 48.1325 21.4568C47.4478 20.8597 46.9199 20.2208 46.5 19.5395C46.0801 20.2208 45.5522 20.8597 44.8675 21.4568C43.0076 23.0787 40.6672 24 38.2804 24Z" fill="#EFC0CD"/>
    <path d="M58.2804 24C51.6511 24 47 17.9628 47 11.9088C47 5.88471 51.7077 1 57.5138 1C61.1991 1 64.0165 2.80348 66.095 5.88695L66.5 6.48783L66.905 5.88695C68.9835 2.80348 71.8009 1 75.4862 1C81.2923 1 86 5.88471 86 11.9088C86 17.9628 81.3489 24 74.7196 24C72.3328 24 69.9924 23.0787 68.1325 21.4568C67.4478 20.8597 66.9199 20.2208 66.5 19.5395C66.0801 20.2208 65.5522 20.8597 64.8675 21.4568C63.0076 23.0787 60.6672 24 58.2804 24Z" fill="#EFC0CD"/>
    <path d="M78.2804 42C71.6511 42 67 35.9628 67 29.9088C67 23.8847 71.7077 19 77.5138 19C81.1991 19 84.0165 20.8035 86.095 23.887L86.5 24.4878L86.905 23.887C88.9835 20.8035 91.8009 19 95.4862 19C101.292 19 106 23.8847 106 29.9088C106 35.9628 101.349 42 94.7196 42C92.3328 42 89.9924 41.0787 88.1325 39.4568C87.4478 38.8597 86.9199 38.2208 86.5 37.5395C86.0801 38.2208 85.5522 38.8597 84.8675 39.4568C83.0076 41.0787 80.6672 42 78.2804 42Z" fill="#EFC0CD" transform="translate(-10 0)"/>
    <path d="M48.1456 47C63.8223 47 76 60.3063 76 76.6809C76 92.8864 64.3802 105 48.1456 105C31.911 105 20 92.8864 20 76.6809C20 60.3063 32.4688 47 48.1456 47Z" fill="#E6A1B4"/>
    <path d="M30.3764 77.8621C33.2644 72.0796 40.4017 69.8069 46.0997 72.6928L48 73.6556L49.9003 72.6928C55.5983 69.8069 62.7356 72.0796 65.6236 77.8621C68.4058 83.432 66.2934 90.2041 60.9042 93.1504L48 100.207L35.0958 93.1504C29.7066 90.2041 27.5942 83.432 30.3764 77.8621Z" fill="#D38299"/>
  </g>
</svg>
