<svg width="96" height="112" viewBox="0 0 96 112" fill="none" xmlns="http://www.w3.org/2000/svg">
  <g opacity="0.95">
    <ellipse cx="17" cy="32" rx="11" ry="13.5" transform="rotate(-18 17 32)" fill="#F1C4CF"/>
    <ellipse cx="37" cy="18" rx="11" ry="13.5" transform="rotate(-5 37 18)" fill="#F1C4CF"/>
    <ellipse cx="59" cy="18" rx="11" ry="13.5" transform="rotate(6 59 18)" fill="#F1C4CF"/>
    <ellipse cx="79" cy="32" rx="11" ry="13.5" transform="rotate(18 79 32)" fill="#F1C4CF"/>
    <ellipse cx="48" cy="77" rx="30" ry="28" fill="#E8A8B8"/>
    <path d="M30 74.5C32.7195 70.1827 38.8338 69.7929 42.0507 73.7512C44.5195 76.788 48.9303 77.418 52.1241 75.1528C53.4597 74.2053 54.8562 73.3355 56.3039 72.5572C60.2823 70.4182 65.2442 72.0303 67.2761 76.0644C70.2282 81.9249 67.0006 89.1484 61.1885 91.8625C57.4321 93.6164 52.6174 94.7 47.4708 94.7C42.3489 94.7 37.5877 93.6268 33.8796 91.8915C27.9896 89.1343 24.9782 82.4769 28.2697 76.8567L30 74.5Z" fill="#DB8FA4"/>
  </g>
</svg>
