<svg width="96" height="112" viewBox="0 0 96 112" fill="none" xmlns="http://www.w3.org/2000/svg">
  <g opacity="0.95">
    <ellipse cx="18" cy="31" rx="10.5" ry="14" transform="rotate(-20 18 31)" fill="#E9B8C4"/>
    <ellipse cx="38" cy="17" rx="10.5" ry="14" transform="rotate(-6 38 17)" fill="#E9B8C4"/>
    <ellipse cx="59" cy="18" rx="10.5" ry="14" transform="rotate(8 59 18)" fill="#E9B8C4"/>
    <ellipse cx="78" cy="32" rx="10.5" ry="14" transform="rotate(20 78 32)" fill="#E9B8C4"/>
    <path d="M47.3095 45C63.9562 45 78 58.6716 78 75.7273C78 92.783 64.8875 105 47.3095 105C29.7316 105 17 92.783 17 75.7273C17 58.6716 30.6628 45 47.3095 45Z" fill="#E4A5B5"/>
    <path d="M28 72.5C30.3135 68.8299 35.3446 68.4665 38.1924 71.7397C39.1165 72.802 39.9352 74.0244 40.6616 75.3666C42.4608 78.6911 46.4211 79.6896 49.3531 77.2947C50.6958 76.1979 52.1376 75.186 53.6634 74.282C57.3777 72.0818 62.1972 73.5027 64.0871 77.3842C66.6795 82.7085 64.1708 88.8282 59.3347 91.6369C55.9582 93.5988 51.7501 94.7273 47.0252 94.7273C42.1809 94.7273 37.9287 93.5411 34.5225 91.4879C29.6088 88.5268 25.0123 77.2417 28 72.5Z" fill="#D88CA0"/>
  </g>
</svg>
